<?xml version="1.0" encoding="UTF-8"?>
<svg version="1.1" xmlns="http://www.w3.org/2000/svg" width="72" height="72">
<path d="M0 0 C1.546875 0.8353125 1.546875 0.8353125 3.125 1.6875 C10.71537404 7.79280086 17.09288332 14.94933946 18.21875 24.94140625 C18.88209053 33.94625391 18.51105404 41.9681233 14 50 C13.443125 51.03125 12.88625 52.0625 12.3125 53.125 C6.5095442 60.33948559 0.07381146 65.6179286 -9 68 C-10.32 68 -11.64 68 -13 68 C-13 59.42 -13 50.84 -13 42 C-10.03 42 -7.06 42 -4 42 C-3.505 37.05 -3.505 37.05 -3 32 C-6.3 32 -9.6 32 -13 32 C-13.48283262 23.79184549 -13.48283262 23.79184549 -11.4375 20.4375 C-8.17847619 18.5155116 -5.71510114 18.71422299 -2 19 C-2 16.36 -2 13.72 -2 11 C-11.35608528 10.58020697 -11.35608528 10.58020697 -19.3125 14.4375 C-21.91107928 18.38349076 -22.23804469 20.89722264 -22.5625 25.625 C-22.64628906 26.81351563 -22.73007812 28.00203125 -22.81640625 29.2265625 C-22.87699219 30.14179687 -22.93757813 31.05703125 -23 32 C-25.97 32 -28.94 32 -32 32 C-32 35.3 -32 38.6 -32 42 C-29.03 42 -26.06 42 -23 42 C-23 50.58 -23 59.16 -23 68 C-33.43959616 65.68008974 -41.3470264 62.62238618 -48 54 C-54.05840483 43.68815552 -56.07496149 32.62237885 -53.24609375 20.8671875 C-52.30773727 18.46057913 -51.264001 16.25053836 -50 14 C-49.443125 12.96875 -48.88625 11.9375 -48.3125 10.875 C-36.36883269 -3.97388368 -17.30119401 -9.71710897 0 0 Z " fill="#0010A2" transform="translate(54,4)"/>
</svg>
