<?xml version="1.0" encoding="UTF-8"?>
<svg version="1.1" xmlns="http://www.w3.org/2000/svg" width="72" height="72">
<path d="M0 0 C0.90618576 -0.0066568 1.81237152 -0.0133136 2.74601746 -0.02017212 C4.65984067 -0.03027688 6.57369896 -0.03498981 8.48754883 -0.03466797 C11.39789721 -0.0390324 14.30671739 -0.07535046 17.21679688 -0.11328125 C19.0820261 -0.11915182 20.94726248 -0.12311961 22.8125 -0.125 C23.67422318 -0.13937103 24.53594635 -0.15374207 25.42378235 -0.16854858 C31.87170423 -0.12040595 37.29484331 1.27593114 42.13313293 5.74795532 C47.42432867 11.73875932 47.9218222 17.09450707 47.94140625 24.73046875 C47.95139145 26.08974739 47.95139145 26.08974739 47.96157837 27.47648621 C47.97168313 29.39030942 47.97639606 31.30416771 47.97607422 33.21801758 C47.98043865 36.12836596 48.01675671 39.03718614 48.0546875 41.94726562 C48.06055807 43.81249485 48.06452586 45.67773123 48.06640625 47.54296875 C48.08077728 48.40469193 48.09514832 49.2664151 48.10995483 50.1542511 C48.0618122 56.60217298 46.66547511 62.02531206 42.19345093 66.86360168 C36.20264693 72.15479742 30.84689918 72.65229095 23.2109375 72.671875 C21.85165886 72.6818602 21.85165886 72.6818602 20.46492004 72.69204712 C18.55109683 72.70215188 16.63723854 72.70686481 14.72338867 72.70654297 C11.81304029 72.7109074 8.90422011 72.74722546 5.99414062 72.78515625 C4.1289114 72.79102682 2.26367502 72.79499461 0.3984375 72.796875 C-0.46328568 72.81124603 -1.32500885 72.82561707 -2.21284485 72.84042358 C-8.66076673 72.79228095 -14.08390581 71.39594386 -18.92219543 66.92391968 C-24.21339117 60.93311568 -24.7108847 55.57736793 -24.73046875 47.94140625 C-24.73712555 47.03522049 -24.74378235 46.12903473 -24.75064087 45.19538879 C-24.76074563 43.28156558 -24.76545856 41.36770729 -24.76513672 39.45385742 C-24.76950115 36.54350904 -24.80581921 33.63468886 -24.84375 30.72460938 C-24.84962057 28.85938015 -24.85358836 26.99414377 -24.85546875 25.12890625 C-24.86983978 24.26718307 -24.88421082 23.4054599 -24.89901733 22.5176239 C-24.8508747 16.06970202 -23.45453761 10.64656294 -18.98251343 5.80827332 C-12.99170943 0.51707758 -7.63596168 0.01958405 0 0 Z M-14.70703125 12.8359375 C-17.66182315 17.21340698 -17.56888597 21.19439145 -17.59765625 26.29296875 C-17.60335632 27.07355148 -17.6090564 27.85413422 -17.6149292 28.65837097 C-17.62437075 30.31007536 -17.63090983 31.96179852 -17.63476562 33.61352539 C-17.64445543 36.12875637 -17.67547926 38.64316441 -17.70703125 41.15820312 C-17.71356339 42.76562017 -17.71881303 44.37304303 -17.72265625 45.98046875 C-17.73500305 46.72754593 -17.74734985 47.47462311 -17.7600708 48.24433899 C-17.7398497 53.03236207 -16.92889703 56.27300872 -14.39453125 60.3359375 C-9.34929037 65.00278531 -5.33779838 65.50026997 1.30859375 65.5390625 C2.06460876 65.54476257 2.82062378 65.55046265 3.59954834 65.55633545 C5.19997767 65.56577715 6.80042637 65.57231614 8.40087891 65.57617188 C10.83270875 65.58584695 13.26368203 65.61686429 15.6953125 65.6484375 C17.25390126 65.6549712 18.81249603 65.66022023 20.37109375 65.6640625 C21.45115692 65.6825827 21.45115692 65.6825827 22.55303955 65.70147705 C27.71310483 65.67905049 31.10933165 64.68278376 35.60546875 62.3359375 C40.39850227 57.29063906 40.77077225 53.08151215 40.80859375 46.37890625 C40.81714386 45.20803215 40.81714386 45.20803215 40.8258667 44.01350403 C40.83530825 42.36179964 40.84184733 40.71007648 40.84570312 39.05834961 C40.85539293 36.54311863 40.88641676 34.02871059 40.91796875 31.51367188 C40.92450089 29.90625483 40.92975053 28.29883197 40.93359375 26.69140625 C40.94594055 25.94432907 40.95828735 25.19725189 40.9710083 24.42753601 C40.9507872 19.63951293 40.13983453 16.39886628 37.60546875 12.3359375 C32.48621693 7.60062957 28.38803699 7.17084275 21.6484375 7.1328125 C20.4775634 7.12426239 20.4775634 7.12426239 19.28303528 7.11553955 C17.63133089 7.106098 15.97960773 7.09955892 14.32788086 7.09570312 C11.81264988 7.08601332 9.29824184 7.05498949 6.78320312 7.0234375 C5.17578608 7.01690536 3.56836322 7.01165572 1.9609375 7.0078125 C1.21386032 6.9954657 0.46678314 6.9831189 -0.30293274 6.97039795 C-6.42775983 6.99626472 -10.52410814 8.31385847 -14.70703125 12.8359375 Z " fill="#0010A2" transform="translate(24.39453125,-0.3359375)"/>
<path d="M0 0 C4.34048798 3.02068221 7.47521474 7.11878867 8.82421875 12.26953125 C9.4477767 18.60903708 8.48838252 23.00440977 4.82421875 28.26953125 C0.54307414 32.90255076 -3.7597084 35.03188474 -9.98828125 35.64453125 C-15.34239213 35.48289771 -19.79139298 33.47282674 -23.71875 29.84375 C-27.91818404 25.07782339 -29.68100344 20.7706412 -29.48828125 14.38671875 C-28.71488708 9.14697322 -26.18739864 4.8742445 -22.23828125 1.39453125 C-14.86154362 -3.72402139 -7.86778296 -4.3744255 0 0 Z M-18.17578125 7.26953125 C-21.24069089 10.23227723 -22.00998024 13.04160562 -22.17578125 17.26953125 C-20.72907847 21.76192409 -19.47646031 25.05775345 -15.17578125 27.26953125 C-11.26850382 28.48512867 -9.42383725 28.34941369 -5.48828125 27.08203125 C-1.15146763 24.70905776 0.24560693 23.12935496 1.69921875 18.45703125 C1.861635 14.31541697 0.80270073 11.88537763 -1.17578125 8.26953125 C-6.37823778 2.88767967 -12.05191656 3.91873736 -18.17578125 7.26953125 Z " fill="#0010A2" transform="translate(46.17578125,19.73046875)"/>
<path d="M0 0 C5.875 0.875 5.875 0.875 7 2 C7.375 4.375 7.375 4.375 7 7 C4.75 8.9375 4.75 8.9375 2 10 C-0.25 9.4375 -0.25 9.4375 -2 8 C-2.9375 6.125 -2.9375 6.125 -3 4 C-1.5625 1.75 -1.5625 1.75 0 0 Z " fill="#0010A2" transform="translate(53,12)"/>
</svg>
