<?xml version="1.0" encoding="UTF-8"?>
<svg version="1.1" xmlns="http://www.w3.org/2000/svg" width="76" height="69">
<path d="M0 0 C12.87 0 25.74 0 39 0 C39 2.31 39 4.62 39 7 C41.68349149 8.07637964 44.33815324 9.11104178 47.08691406 10.01367188 C50.89787519 11.75816714 53.83078369 13.37951131 56 17 C58.10497384 25.52559124 57.1084943 34.83057142 56.75 43.5 C56.37875 56.1225 56.37875 56.1225 56 69 C31.58 69 7.16 69 -18 69 C-18.226875 60.75 -18.45375 52.5 -18.6875 44 C-18.78764404 41.41027344 -18.88778809 38.82054687 -18.9909668 36.15234375 C-19.38237301 18.85736602 -19.38237301 18.85736602 -15.67822266 14.6953125 C-12.8315698 12.60799007 -10.27388418 11.28761082 -7 10 C-6.09725342 9.45214844 -5.19450684 8.90429688 -4.2644043 8.33984375 C-2 7 -2 7 0 7 C0 4.69 0 2.38 0 0 Z M8 7 C6.11559726 21.28752575 6.11559726 21.28752575 10.44921875 34.15234375 C13.2774269 35.86520221 15.82557747 37.09302213 19 38 C20.43838552 37.20994338 21.87567415 36.41788955 23.3125 35.625 C24.11300781 35.18414062 24.91351563 34.74328125 25.73828125 34.2890625 C27.53527943 33.26486665 29.27900708 32.14732862 31 31 C31.41678607 28.48103926 31.41678607 28.48103926 31.29296875 25.5546875 C31.28330078 24.47832031 31.27363281 23.40195312 31.26367188 22.29296875 C31.23853516 21.16503906 31.21339844 20.03710938 31.1875 18.875 C31.17396484 17.73933594 31.16042969 16.60367187 31.14648438 15.43359375 C31.11104658 12.62219515 31.05723836 9.81103925 31 7 C23.41 7 15.82 7 8 7 Z M39 15 C39 18.3 39 21.6 39 25 C41.31 23.68 43.62 22.36 46 21 C45.27731765 17.7014861 45.27731765 17.7014861 41.9375 16.3125 C40.968125 15.879375 39.99875 15.44625 39 15 Z M-7 19 C-6.27731765 22.2985139 -6.27731765 22.2985139 -2.9375 23.6875 C-1.4834375 24.3371875 -1.4834375 24.3371875 0 25 C0 21.7 0 18.4 0 15 C-2.39175599 15 -5.08498484 17.69615989 -7 19 Z M-11 27 C-11 38.55 -11 50.1 -11 62 C9.13 62 29.26 62 50 62 C50 50.45 50 38.9 50 27 C42.77256638 30.9771141 42.77256638 30.9771141 35.921875 35.3671875 C35.07109375 35.94210938 34.2203125 36.51703125 33.34375 37.109375 C31.59298174 38.30116303 29.84829392 39.50192583 28.109375 40.7109375 C26.8409375 41.56171875 26.8409375 41.56171875 25.546875 42.4296875 C24.79245117 42.94772949 24.03802734 43.46577148 23.26074219 43.99951172 C20.36581818 45.28065628 18.97744701 44.96672691 16 44 C13.54358895 42.51934577 11.21867135 41.01479052 8.875 39.375 C7.5474787 38.4678659 6.21934807 37.5616229 4.890625 36.65625 C4.23642578 36.20765625 3.58222656 35.7590625 2.90820312 35.296875 C0.17692715 33.44061375 -2.59187318 31.65270404 -5.375 29.875 C-6.24898437 29.31554687 -7.12296875 28.75609375 -8.0234375 28.1796875 C-9.75947495 26.91458369 -9.75947495 26.91458369 -11 27 Z " fill="#3E434D" transform="translate(20,0)"/>
<path d="M0 0 C6.27 0 12.54 0 19 0 C19 2.31 19 4.62 19 7 C12.73 7 6.46 7 0 7 C0 4.69 0 2.38 0 0 Z " fill="#3F444C" transform="translate(30,22)"/>
<path d="M0 0 C6.27 0 12.54 0 19 0 C19 2.31 19 4.62 19 7 C12.73 7 6.46 7 0 7 C0 4.69 0 2.38 0 0 Z " fill="#3E444C" transform="translate(30,12)"/>
</svg>
