<?xml version="1.0" encoding="UTF-8"?>
<svg version="1.1" xmlns="http://www.w3.org/2000/svg" width="85" height="85">
<path d="M0 0 C4.90152094 1.56219598 7.55848276 4.1493317 11.08984375 7.7890625 C11.72599609 8.39363281 12.36214844 8.99820312 13.01757812 9.62109375 C16.13530097 12.76225812 17.53111397 14.4105362 18.25 18.87890625 C17.62796268 22.29807873 17.046633 23.65739222 14.65234375 26.1015625 C14.09546875 26.68808594 13.53859375 27.27460937 12.96484375 27.87890625 C12.53171875 28.30300781 12.09859375 28.72710937 11.65234375 29.1640625 C13.86130347 37.01814149 20.82271744 43.16937541 27.65234375 47.1640625 C31.00758794 46.80752801 31.63144405 46.18661217 34.02734375 43.6015625 C36.65234375 41.1640625 36.65234375 41.1640625 39.46484375 40.4140625 C44.38336514 41.57136165 47.11793172 44.69082299 50.65234375 48.1640625 C51.32265625 48.75058594 51.99296875 49.33710937 52.68359375 49.94140625 C55.75035273 52.71280115 57.4736239 54.71726287 59.02734375 58.6015625 C58.46436393 63.94987076 55.40324692 66.53294865 51.65234375 70.1640625 C51.06324219 70.8859375 50.47414063 71.6078125 49.8671875 72.3515625 C45.85744189 75.63290635 41.04249885 75.10524166 36.0859375 74.859375 C20.10096884 73.04393677 4.57659509 57.47458667 -4.984375 45.56640625 C-10.69372632 37.70681072 -18.01587165 26.39473937 -17.9609375 16.48828125 C-16.60781275 11.36019702 -12.11707369 7.68777864 -8.34765625 4.1640625 C-7.17783203 2.99617187 -7.17783203 2.99617187 -5.984375 1.8046875 C-3.34765625 0.1640625 -3.34765625 0.1640625 0 0 Z M-6.03515625 11.1640625 C-7.27845703 12.2778125 -7.27845703 12.2778125 -8.546875 13.4140625 C-10.62103165 16.58153817 -10.66385908 18.39156196 -9.95483398 22.08056641 C-8.92604917 25.61078339 -7.3765705 28.67968784 -5.53515625 31.8515625 C-5.14062256 32.53927734 -4.74608887 33.22699219 -4.33959961 33.93554688 C0.03782882 41.25293833 5.48560483 47.31603977 11.65234375 53.1640625 C12.45285156 53.92332031 13.25335938 54.68257812 14.078125 55.46484375 C18.95181162 59.68324477 24.2550663 62.74003093 29.96484375 65.6640625 C30.64708008 66.01509033 31.32931641 66.36611816 32.03222656 66.7277832 C35.64728638 68.49125958 38.61969906 69.94118674 42.65234375 69.1640625 C44.67291304 67.70863182 44.67291304 67.70863182 46.33984375 65.7265625 C49.52989477 62.22528699 49.52989477 62.22528699 51.65234375 61.1640625 C50.11590523 57.48336363 47.8708343 55.17631046 45.02734375 52.4140625 C44.21007813 51.61484375 43.3928125 50.815625 42.55078125 49.9921875 C41.92429688 49.38890625 41.2978125 48.785625 40.65234375 48.1640625 C39.98138672 48.79634766 39.98138672 48.79634766 39.296875 49.44140625 C38.39001953 50.26318359 38.39001953 50.26318359 37.46484375 51.1015625 C36.87316406 51.64683594 36.28148437 52.19210938 35.671875 52.75390625 C33.22772725 54.46055487 31.62949109 54.98706746 28.65234375 55.1640625 C17.88326484 50.80724101 10.53844293 42.70732566 4.8046875 32.93359375 C3.65234375 30.1640625 3.65234375 30.1640625 3.77734375 28.00390625 C4.80283505 25.84762766 5.97451019 24.54331094 7.71484375 22.9140625 C8.26269531 22.39328125 8.81054688 21.8725 9.375 21.3359375 C9.79652344 20.94921875 10.21804687 20.5625 10.65234375 20.1640625 C9.14251644 16.73549631 7.13520406 14.20728034 4.65234375 11.4140625 C3.95109375 10.61484375 3.24984375 9.815625 2.52734375 8.9921875 C-1.11199373 5.44383345 -2.85385756 8.20750234 -6.03515625 11.1640625 Z " fill="#3F434C" transform="translate(19.34765625,10.8359375)"/>
<path d="M0 0 C11.41547463 0.48576488 20.73452974 3.92417724 29 12 C34.25940805 18.56581348 37.29738509 24.27943788 37.125 32.8125 C37.10695312 33.97394531 37.08890625 35.13539062 37.0703125 36.33203125 C37.04710937 37.21246094 37.02390625 38.09289063 37 39 C35.35 39 33.7 39 32 39 C31.77957031 37.74896484 31.77957031 37.74896484 31.5546875 36.47265625 C29.46729704 25.99971448 26.10228545 18.39792074 17.14453125 12.21484375 C11.81316723 9.19470858 6.04980888 7.77561652 0 7 C0 4.69 0 2.38 0 0 Z " fill="#3F434C" transform="translate(48,2)"/>
<path d="M0 0 C8.26784602 0.18636538 13.64698827 1.94311152 19.72265625 7.60546875 C24.33002413 12.55244606 26.82474575 17.72858742 27.1875 24.5 C27.0946875 25.7375 27.0946875 25.7375 27 27 C24.69 27 22.38 27 20 27 C19.85304688 26.12988281 19.85304688 26.12988281 19.703125 25.2421875 C18.597885 19.46826132 17.30717031 14.56675904 12.4296875 10.78125 C8.35902355 8.22567622 4.7615872 7.388701 0 7 C0 4.69 0 2.38 0 0 Z " fill="#3F434C" transform="translate(48,14)"/>
<path d="M0 0 C9.31578947 1.89473684 9.31578947 1.89473684 13 6 C16 12.89516129 16 12.89516129 16 16 C13.69 16 11.38 16 9 16 C8.62875 15.071875 8.2575 14.14375 7.875 13.1875 C5.69057041 9.4739697 3.93281241 8.57312496 0 7 C0 4.69 0 2.38 0 0 Z " fill="#3F434C" transform="translate(48,25)"/>
</svg>
