<?xml version="1.0" encoding="UTF-8"?>
<svg version="1.1" xmlns="http://www.w3.org/2000/svg" width="48" height="48">
<path d="M0 0 C4.30246865 0.50288595 6.21278486 1.73073249 9.20703125 4.81640625 C9.95791016 5.58017578 10.70878906 6.34394531 11.48242188 7.13085938 C12.25134766 7.93330078 13.02027344 8.73574219 13.8125 9.5625 C14.60076172 10.36880859 15.38902344 11.17511719 16.20117188 12.00585938 C18.14342916 13.99520169 20.07573661 15.99327271 22 18 C25.27167966 16.58081124 27.29880352 14.87595482 29.71484375 12.26953125 C30.40126953 11.54958984 31.08769531 10.82964844 31.79492188 10.08789062 C33.22733969 8.56668118 34.65181236 7.03795232 36.06835938 5.50195312 C37.09993164 4.4278418 37.09993164 4.4278418 38.15234375 3.33203125 C39.0803479 2.33780151 39.0803479 2.33780151 40.02709961 1.32348633 C42 -0 42 -0 44.74047852 0.29174805 C45.85894165 0.64233276 45.85894165 0.64233276 47 1 C46.49711405 5.30246865 45.26926751 7.21278486 42.18359375 10.20703125 C41.41982422 10.95791016 40.65605469 11.70878906 39.86914062 12.48242188 C39.06669922 13.25134766 38.26425781 14.02027344 37.4375 14.8125 C36.63119141 15.60076172 35.82488281 16.38902344 34.99414062 17.20117188 C33.00479831 19.14342916 31.00672729 21.07573661 29 23 C30.41918876 26.27167966 32.12404518 28.29880352 34.73046875 30.71484375 C35.81038086 31.74448242 35.81038086 31.74448242 36.91210938 32.79492188 C38.43331882 34.22733969 39.96204768 35.65181236 41.49804688 37.06835938 C42.21412109 37.75607422 42.93019531 38.44378906 43.66796875 39.15234375 C44.66219849 40.0803479 44.66219849 40.0803479 45.67651367 41.02709961 C47 43 47 43 46.70825195 45.74047852 C46.47452881 46.48612061 46.24080566 47.2317627 46 48 C41.69753135 47.49711405 39.78721514 46.26926751 36.79296875 43.18359375 C36.04208984 42.41982422 35.29121094 41.65605469 34.51757812 40.86914062 C33.74865234 40.06669922 32.97972656 39.26425781 32.1875 38.4375 C31.39923828 37.63119141 30.61097656 36.82488281 29.79882812 35.99414062 C27.85657084 34.00479831 25.92426339 32.00672729 24 30 C20.72832034 31.41918876 18.70119648 33.12404518 16.28515625 35.73046875 C15.59873047 36.45041016 14.91230469 37.17035156 14.20507812 37.91210938 C12.77266031 39.43331882 11.34818764 40.96204768 9.93164062 42.49804688 C9.24392578 43.21412109 8.55621094 43.93019531 7.84765625 44.66796875 C7.22898682 45.33078857 6.61031738 45.9936084 5.97290039 46.67651367 C4 48 4 48 1.25952148 47.70825195 C0.51387939 47.47452881 -0.2317627 47.24080566 -1 47 C-0.49711405 42.69753135 0.73073249 40.78721514 3.81640625 37.79296875 C4.58017578 37.04208984 5.34394531 36.29121094 6.13085938 35.51757812 C6.93330078 34.74865234 7.73574219 33.97972656 8.5625 33.1875 C9.36880859 32.39923828 10.17511719 31.61097656 11.00585938 30.79882812 C12.99520169 28.85657084 14.99327271 26.92426339 17 25 C15.58081124 21.72832034 13.87595482 19.70119648 11.26953125 17.28515625 C10.54958984 16.59873047 9.82964844 15.91230469 9.08789062 15.20507812 C7.56668118 13.77266031 6.03795232 12.34818764 4.50195312 10.93164062 C3.78587891 10.24392578 3.06980469 9.55621094 2.33203125 8.84765625 C1.66921143 8.22898682 1.0063916 7.61031738 0.32348633 6.97290039 C-1 5 -1 5 -0.70825195 2.25952148 C-0.47452881 1.51387939 -0.24080566 0.7682373 0 0 Z " fill="#000000" transform="translate(1,0)"/>
</svg>
