<?xml version="1.0" encoding="UTF-8"?>
<svg version="1.1" xmlns="http://www.w3.org/2000/svg" width="68" height="60">
<path d="M0 0 C1.75539345 0.00333092 1.75539345 0.00333092 3.54624939 0.00672913 C4.51207191 0.00651009 4.51207191 0.00651009 5.49740601 0.00628662 C7.63473327 0.00698567 9.77197438 0.01477761 11.9092865 0.02259827 C13.3875931 0.02446248 14.86590032 0.02588637 16.34420776 0.02688599 C20.24211827 0.03071093 24.13999174 0.040541 28.03788757 0.05158997 C32.01259358 0.0618046 35.98730554 0.06638372 39.96202087 0.07142639 C47.76607425 0.0821633 55.57009707 0.09923942 63.37413025 0.12025452 C63.75631792 1.77640109 64.08808127 3.44482476 64.37413025 5.12025452 C63.37413025 6.12025452 63.37413025 6.12025452 60.7482605 6.24050903 C59.5779982 6.23828842 58.4077359 6.23606781 57.20201111 6.23377991 C56.23618858 6.23399895 56.23618858 6.23399895 55.25085449 6.23422241 C53.11352722 6.23352337 50.97628612 6.22573142 48.838974 6.21791077 C47.3606674 6.21604656 45.88236018 6.21462267 44.40405273 6.21362305 C40.50614223 6.2097981 36.60826876 6.19996803 32.71037292 6.18891907 C28.73566692 6.17870443 24.76095496 6.17412532 20.78623962 6.16908264 C12.98218625 6.15834574 5.17816343 6.14126961 -2.62586975 6.12025452 C-3.00805742 4.46410794 -3.33982077 2.79568427 -3.62586975 1.12025452 C-2.62586975 0.12025452 -2.62586975 0.12025452 0 0 Z " fill="#000000" transform="translate(3.6258697509765625,26.879745483398438)"/>
<path d="M0 0 C0.77943466 0.00222061 1.55886932 0.00444122 2.36192322 0.00672913 C3.68317955 0.00684242 3.68317955 0.00684242 5.03112793 0.00695801 C5.98841293 0.01211929 6.94569794 0.01728058 7.93199158 0.02259827 C9.39480812 0.02472069 9.39480812 0.02472069 10.88717651 0.02688599 C14.01542675 0.03250319 17.14360656 0.04505859 20.27183533 0.05775452 C22.38706867 0.0627673 24.50230313 0.06733059 26.61753845 0.07142639 C31.81482829 0.0824782 37.01207678 0.09923305 42.20933533 0.12025452 C43.33433533 3.87025452 43.33433533 3.87025452 42.20933533 6.12025452 C27.68933533 6.12025452 13.16933533 6.12025452 -1.79066467 6.12025452 C-2.12066467 4.47025452 -2.45066467 2.82025452 -2.79066467 1.12025452 C-1.79066467 0.12025452 -1.79066467 0.12025452 0 0 Z " fill="#000000" transform="translate(13.790664672851563,53.87974548339844)"/>
<path d="M0 0 C0.77943466 0.00222061 1.55886932 0.00444122 2.36192322 0.00672913 C3.68317955 0.00684242 3.68317955 0.00684242 5.03112793 0.00695801 C5.98841293 0.01211929 6.94569794 0.01728058 7.93199158 0.02259827 C9.39480812 0.02472069 9.39480812 0.02472069 10.88717651 0.02688599 C14.01542675 0.03250319 17.14360656 0.04505859 20.27183533 0.05775452 C22.38706867 0.0627673 24.50230313 0.06733059 26.61753845 0.07142639 C31.81482829 0.0824782 37.01207678 0.09923305 42.20933533 0.12025452 C43.33433533 3.87025452 43.33433533 3.87025452 42.20933533 6.12025452 C27.68933533 6.12025452 13.16933533 6.12025452 -1.79066467 6.12025452 C-2.12066467 4.47025452 -2.45066467 2.82025452 -2.79066467 1.12025452 C-1.79066467 0.12025452 -1.79066467 0.12025452 0 0 Z " fill="#000000" transform="translate(13.790664672851563,-0.1202545166015625)"/>
</svg>
