<?xml version="1.0" encoding="UTF-8"?>
<svg version="1.1" xmlns="http://www.w3.org/2000/svg" width="273" height="285">
<path d="M0 0 C1.63252421 1.51275369 3.25756669 3.03362181 4.875 4.5625 C5.68582031 5.30886719 6.49664062 6.05523437 7.33203125 6.82421875 C29.84266489 28.27135788 45.17577422 60.72807327 46.05200195 92.00878906 C46.07858129 93.61514435 46.09871435 95.22161587 46.11328125 96.828125 C46.121353 97.70160583 46.12942474 98.57508667 46.13774109 99.47503662 C46.15150474 101.32057766 46.16226102 103.16614332 46.17016602 105.01171875 C46.18158953 106.85750045 46.20188491 108.70325171 46.23168945 110.54882812 C46.83997317 148.36436586 33.27622322 182.65265466 7.3269043 210.15576172 C-11.15933594 229.13679171 -34.5695196 241.19384074 -60.125 247.5625 C-60.796521 247.74868896 -61.46804199 247.93487793 -62.15991211 248.12670898 C-71.23480247 250.34065307 -80.65543021 250.00227951 -89.9375 250 C-90.85473846 250.0010675 -91.77197693 250.00213501 -92.7170105 250.00323486 C-106.45264954 249.98010204 -119.07573958 249.17618251 -132.125 244.5625 C-133.54803618 244.09982681 -134.97121227 243.63758371 -136.39453125 243.17578125 C-170.27906139 231.70447667 -197.98220078 206.26272496 -214.125 174.5625 C-217.77178428 166.95848527 -220.41918343 158.98959609 -222.875 150.9375 C-223.07391846 150.29361328 -223.27283691 149.64972656 -223.4777832 148.98632812 C-227.07563072 136.57676397 -227.49783973 124.13239764 -227.49560547 111.30883789 C-227.4999549 108.5288246 -227.53632562 105.75043488 -227.57421875 102.97070312 C-227.75398175 74.17372271 -219.27633879 45.87334736 -202.125 22.5625 C-201.5578125 21.77230469 -200.990625 20.98210938 -200.40625 20.16796875 C-178.74727623 -8.4731742 -146.57298252 -28.16230623 -110.84765625 -33.13671875 C-109.94917969 -33.23597656 -109.05070312 -33.33523437 -108.125 -33.4375 C-107.13371094 -33.54707031 -106.14242187 -33.65664063 -105.12109375 -33.76953125 C-66.62847018 -37.45656416 -29.00058741 -25.61793725 0 0 Z " fill="#DADDF8" transform="translate(227.125,35.4375)"/>
<path d="M0 0 C0.68896866 -0.00478363 1.37793732 -0.00956726 2.08778381 -0.01449585 C3.53925877 -0.01788525 4.99081106 -0.0087496 6.44213867 0.01220703 C8.65132875 0.03895562 10.85542152 0.01245874 13.06445312 -0.01953125 C14.48047986 -0.01622617 15.89650344 -0.00981788 17.3125 0 C18.58988037 0.00563965 19.86726074 0.0112793 21.18334961 0.01708984 C25.84207603 0.86868845 27.46658302 2.26550509 30.72265625 5.6640625 C31.1953125 9.1875 31.1953125 9.1875 30.78515625 13.0390625 C30.7173999 13.70446045 30.64964355 14.3698584 30.57983398 15.05541992 C29.91043749 20.78576366 28.89092159 25.49579716 24.72265625 29.6640625 C24.79904902 31.76915987 24.79904902 31.76915987 25.37890625 34.21484375 C25.68054688 35.69718506 25.68054688 35.69718506 25.98828125 37.20947266 C26.230625 38.3494873 26.47296875 39.48950195 26.72265625 40.6640625 C26.98990615 41.98323305 27.2554505 43.30274997 27.51953125 44.62255859 C28.25286691 48.27774544 29.00085466 51.92973987 29.75439453 55.58081055 C30.22387348 57.85746524 30.69016679 60.13475737 31.15625 62.41210938 C31.45944392 63.88545609 31.76282293 65.35876472 32.06640625 66.83203125 C32.20292603 67.49994186 32.3394458 68.16785248 32.48010254 68.85600281 C33.18433748 72.25537036 33.9523506 75.62873551 34.80737305 78.99267578 C35.53792918 81.92308471 36.01855911 84.35854413 36.03515625 87.3515625 C36.05191406 88.05667969 36.06867188 88.76179688 36.0859375 89.48828125 C34.8882363 96.66160991 27.81178334 102.05747857 22.97265625 106.9765625 C22.0909375 107.90791016 21.20921875 108.83925781 20.30078125 109.79882812 C19.43453125 110.67861328 18.56828125 111.55839844 17.67578125 112.46484375 C16.89364258 113.27091064 16.11150391 114.07697754 15.30566406 114.9074707 C11.90358512 117.22107732 9.75744901 117.13363141 5.72265625 116.6640625 C3.43221245 115.06434 1.76303518 113.68648513 -0.15234375 111.7265625 C-0.66265137 111.23091797 -1.17295898 110.73527344 -1.69873047 110.22460938 C-3.24083002 108.719605 -4.75896657 107.19294229 -6.27734375 105.6640625 C-7.169375 104.79652344 -8.06140625 103.92898437 -8.98046875 103.03515625 C-17.15960115 95.02752179 -17.15960115 95.02752179 -17.47265625 91.40234375 C-17.44945313 90.60183594 -17.42625 89.80132812 -17.40234375 88.9765625 C-17.38429688 88.16832031 -17.36625 87.36007813 -17.34765625 86.52734375 C-17.32445313 85.91246094 -17.30125 85.29757813 -17.27734375 84.6640625 C-18.01726562 84.58542969 -18.7571875 84.50679688 -19.51953125 84.42578125 C-25.39544387 82.80283088 -29.07339724 76.50760559 -32.27734375 71.6015625 C-33.94752301 66.69541093 -34.29774244 63.0218019 -32.24609375 58.28125 C-28.48542401 51.61650751 -23.48568768 46.21601246 -18.27734375 40.6640625 C-16.9581353 39.16995899 -15.64501303 37.67044538 -14.33984375 36.1640625 C-12.69317098 34.26435491 -11.05606269 32.44278144 -9.27734375 30.6640625 C-9.44026089 28.53257336 -9.44026089 28.53257336 -10.08984375 26.2265625 C-10.37794922 25.05287109 -10.37794922 25.05287109 -10.671875 23.85546875 C-11.15425807 22.10955326 -11.70455109 20.38244048 -12.27734375 18.6640625 C-12.47309017 16.54440844 -12.58904737 14.41679452 -12.65234375 12.2890625 C-12.70132813 11.16757813 -12.7503125 10.04609375 -12.80078125 8.890625 C-11.62407668 1.63720728 -6.69677635 0.02959247 0 0 Z " fill="#0313A4" transform="translate(135.27734375,83.3359375)"/>
<path d="M0 0 C2.31 0 4.62 0 7 0 C8.73113403 7.76096701 10.45473537 15.52357482 12.17431641 23.28710938 C12.94677398 26.76065601 13.72808641 30.23208554 14.51171875 33.703125 C14.96635576 35.73953648 15.42079328 37.77599251 15.875 39.8125 C16.08987061 40.75295166 16.30474121 41.69340332 16.52612305 42.66235352 C18.62021858 52.12081473 18.62021858 52.12081473 18 56 C15.953125 58.66796875 15.953125 58.66796875 13.25 61.1875 C12.36828125 62.02667969 11.4865625 62.86585938 10.578125 63.73046875 C8.44637469 65.60705501 6.30583535 67.34604801 4 69 C0.19358422 67.37387011 -2.77443376 64.94111791 -5.8125 62.1875 C-6.80894531 61.33542969 -7.80539063 60.48335937 -8.83203125 59.60546875 C-11.26628111 56.52411609 -11.27895608 54.12634616 -11.0703125 50.26171875 C-10.01177632 41.60191987 -8.02397574 33.11579537 -6.0625 24.625 C-5.69777306 23.00929376 -5.33383633 21.39340893 -4.97070312 19.77734375 C-3.46641641 13.13149521 -1.92349131 6.53891057 0 0 Z " fill="#D6D9F7" transform="translate(141,117)"/>
<path d="M0 0 C5.94 0 11.88 0 18 0 C18 7 18 7 17 9 C12.05 9 7.1 9 2 9 C0 2 0 2 0 0 Z " fill="#CFD3F4" transform="translate(135,96)"/>
<path d="M0 0 C1.80492542 3.60985084 0.05200223 7.73906573 -0.75 11.5625 C-0.92015625 12.45130859 -1.0903125 13.34011719 -1.265625 14.25585938 C-1.52859375 15.52333008 -1.52859375 15.52333008 -1.796875 16.81640625 C-1.95510742 17.59443604 -2.11333984 18.37246582 -2.27636719 19.17407227 C-2.51516602 19.77662842 -2.75396484 20.37918457 -3 21 C-3.99 21.33 -4.98 21.66 -6 22 C-10.0861678 15.99092971 -10.0861678 15.99092971 -9.75 12.125 C-7.15913105 7.4984483 -3.64984342 3.81960358 0 0 Z " fill="#CBCFF3" transform="translate(124,134)"/>
</svg>
