<?xml version="1.0" encoding="UTF-8"?>
<svg version="1.1" xmlns="http://www.w3.org/2000/svg" width="273" height="284">
<path d="M0 0 C0.66547852 0.18191895 1.33095703 0.36383789 2.01660156 0.55126953 C36.68209813 10.21511872 65.96226354 34.93005923 83.75 65.8125 C93.98227133 84.29558386 100.04147118 104.95612706 100.23828125 126.1328125 C100.24812042 126.99876541 100.25795959 127.86471832 100.26809692 128.75691223 C100.59654044 165.12806335 100.59654044 165.12806335 96 180 C95.76394043 180.78165527 95.52788086 181.56331055 95.28466797 182.36865234 C89.71916819 200.18471063 81.15847227 216.81511569 69 231 C68.57106445 231.5057959 68.14212891 232.0115918 67.70019531 232.53271484 C45.89941352 258.04237686 14.69369583 275.86555669 -18.8984375 279.75390625 C-35.35438096 280.92933078 -51.90556065 280.83621936 -68 277 C-69.0216626 276.76651855 -69.0216626 276.76651855 -70.06396484 276.52832031 C-87.78051978 272.34646212 -104.64114396 264.14830249 -119 253 C-120.42505859 251.90558594 -120.42505859 251.90558594 -121.87890625 250.7890625 C-150.1478645 228.37834455 -168.71435385 195.93102261 -173 160 C-173.16626857 156.79838845 -173.21086157 153.6000543 -173.23828125 150.39453125 C-173.246353 149.47524338 -173.25442474 148.55595551 -173.26274109 147.60881042 C-173.27652606 145.66313527 -173.287273 143.7174365 -173.29516602 141.77172852 C-173.30658611 139.82210983 -173.3268757 137.87251987 -173.35668945 135.9230957 C-173.74823392 110.24084074 -168.24193614 87.61120402 -156 65 C-155.50628906 64.08476563 -155.01257813 63.16953125 -154.50390625 62.2265625 C-137.4001524 32.28288012 -107.9408777 9.58381602 -74.76123047 0.37890625 C-50.82198536 -5.85150753 -23.95338443 -6.87205772 0 0 Z " fill="#DADDF8" transform="translate(173,4)"/>
<path d="M0 0 C7.06042572 4.80656848 12.34087835 11.48258875 14 20 C14.27016552 25.04286163 14.31321143 30.08387538 14.35009766 35.13330078 C14.3665933 36.78383548 14.39379853 38.43430064 14.43212891 40.08447266 C14.69394549 51.43820578 13.98930337 59.16165873 7.11328125 68.5859375 C0.55881641 75.09774856 -7.68638862 78.9163752 -17 79.375 C-26.72859481 79.19898924 -34.39021739 74.3947052 -41.0625 67.671875 C-47.54818055 58.7279123 -47.65738706 50.35906083 -47.57641602 39.63500977 C-47.56254656 37.07110734 -47.59669364 34.51086139 -47.63476562 31.94726562 C-47.68563146 21.40791576 -46.79707201 13.79500305 -39.859375 5.4140625 C-28.13837229 -4.52708424 -14.1187723 -8.29938267 0 0 Z " fill="#0515A5" transform="translate(153,89)"/>
<path d="M0 0 C4.82364362 2.77905394 8.77056654 7.37483034 10.34765625 12.75 C10.45980469 13.3275 10.57195312 13.905 10.6875 14.5 C9.76066406 14.56058594 8.83382812 14.62117188 7.87890625 14.68359375 C6.08259766 14.80927734 6.08259766 14.80927734 4.25 14.9375 C3.05503906 15.01871094 1.86007813 15.09992188 0.62890625 15.18359375 C-2.19820244 15.17656114 -2.19820244 15.17656114 -3.3125 16.5 C-3.5625773 18.95809998 -3.5625773 18.95809998 -3.3125 21.5 C-0.54207891 24.27042109 1.45283805 23.89796106 5.3125 24.125 C7.09527344 24.23714844 7.09527344 24.23714844 8.9140625 24.3515625 C9.82929688 24.40054688 10.74453125 24.44953125 11.6875 24.5 C11.6875 28.13 11.6875 31.76 11.6875 35.5 C10.68847656 35.56058594 9.68945312 35.62117188 8.66015625 35.68359375 C7.36980469 35.76738281 6.07945312 35.85117188 4.75 35.9375 C3.46222656 36.01871094 2.17445313 36.09992188 0.84765625 36.18359375 C-2.17273957 36.14919188 -2.17273957 36.14919188 -3.3125 37.5 C-3.5625773 39.95809998 -3.5625773 39.95809998 -3.3125 42.5 C-0.72323669 45.08926331 0.71455279 44.87398043 4.3125 45.125 C5.31539062 45.19976562 6.31828125 45.27453125 7.3515625 45.3515625 C8.12242187 45.40054688 8.89328125 45.44953125 9.6875 45.5 C8.86581677 50.94365143 6.77451669 53.89179699 2.6875 57.5 C-2.84758546 60.9926185 -7.83659859 62.32233669 -14.3125 61.5 C-20.9641585 59.45333585 -25.34607204 55.09898671 -29.3125 49.5 C-31.13926377 44.01970869 -30.61850267 37.93282069 -30.66259766 32.18676758 C-30.67910691 30.61272342 -30.70633067 29.03875267 -30.74462891 27.46508789 C-31.12569109 11.70402458 -31.12569109 11.70402458 -26.74707031 5.92822266 C-19.45403204 -1.33254553 -9.7886807 -4.2896342 0 0 Z " fill="#D7DAF7" transform="translate(146.3125,96.5)"/>
<path d="M0 0 C3 0.25 3 0.25 5 2.25 C5.50501511 4.77507556 5.92905177 7.26934448 6.3125 9.8125 C8.18243432 20.83675796 12.32655269 27.98781136 21.3125 34.875 C29.89932709 40.66654083 38.8881171 41.55274258 49 40.25 C58.59108742 37.78653577 66.23397139 32.62374317 71.8125 24.4375 C75.60797995 17.83998788 77.08885915 10.35911531 78.5703125 2.96484375 C79 1.25 79 1.25 80 0.25 C82.9375 0.0625 82.9375 0.0625 86 0.25 C88.50428963 2.75428963 88.32469387 3.65387685 88.375 7.125 C88.13118864 18.09651132 83.86816196 26.88075522 77 35.25 C76.42636719 35.96027344 75.85273438 36.67054688 75.26171875 37.40234375 C68.86570635 44.53793789 59.24127802 50.09370534 49.625 51.1875 C47.830625 51.2184375 47.830625 51.2184375 46 51.25 C46 53.23 46 55.21 46 57.25 C46.90363281 57.22679687 47.80726563 57.20359375 48.73828125 57.1796875 C49.91777344 57.16164062 51.09726563 57.14359375 52.3125 57.125 C54.07013672 57.09019531 54.07013672 57.09019531 55.86328125 57.0546875 C59 57.25 59 57.25 62 59.25 C61.74438677 61.5931213 61.40729228 63.92843403 61 66.25 C57.91066741 67.7946663 54.64550875 67.4337995 51.25390625 67.453125 C50.48698959 67.45882507 49.72007294 67.46452515 48.92991638 67.47039795 C47.30672588 67.4798486 45.68351618 67.48638219 44.06030273 67.49023438 C41.57566971 67.49994851 39.09186097 67.53097346 36.60742188 67.5625 C35.03125492 67.56902927 33.45508204 67.57428004 31.87890625 67.578125 C31.13508194 67.5904718 30.39125763 67.6028186 29.62489319 67.61553955 C24.49798572 67.59337043 24.49798572 67.59337043 22.02709961 65.88964844 C20.57082593 63.56487211 20.65571343 61.93543525 21 59.25 C23 57.25 23 57.25 26.2578125 57.0546875 C28.17207031 57.08949219 28.17207031 57.08949219 30.125 57.125 C32.04699219 57.15207031 32.04699219 57.15207031 34.0078125 57.1796875 C34.99523437 57.20289063 35.98265625 57.22609375 37 57.25 C37 55.27 37 53.29 37 51.25 C35.80375 51.229375 34.6075 51.20875 33.375 51.1875 C22.2888308 49.88016873 12.85830333 43.32333074 5.41796875 35.35546875 C-1.32075474 26.70072695 -5.09042986 17.52290962 -5.1875 6.4375 C-5.20167969 5.68855469 -5.21585937 4.93960938 -5.23046875 4.16796875 C-4.80934852 0.6633919 -3.30913879 0.27576157 0 0 Z " fill="#0515A5" transform="translate(95,131.75)"/>
</svg>
