<?xml version="1.0" encoding="UTF-8"?>
<svg version="1.1" xmlns="http://www.w3.org/2000/svg" width="273" height="285">
<path d="M0 0 C1.63252421 1.51275369 3.25756669 3.03362181 4.875 4.5625 C5.68582031 5.30886719 6.49664062 6.05523437 7.33203125 6.82421875 C29.84266489 28.27135788 45.17577422 60.72807327 46.05200195 92.00878906 C46.07858129 93.61514435 46.09871435 95.22161587 46.11328125 96.828125 C46.121353 97.70160583 46.12942474 98.57508667 46.13774109 99.47503662 C46.15150474 101.32057766 46.16226102 103.16614332 46.17016602 105.01171875 C46.18158953 106.85750045 46.20188491 108.70325171 46.23168945 110.54882812 C46.83997317 148.36436586 33.27622322 182.65265466 7.3269043 210.15576172 C-11.15933594 229.13679171 -34.5695196 241.19384074 -60.125 247.5625 C-60.796521 247.74868896 -61.46804199 247.93487793 -62.15991211 248.12670898 C-71.23480247 250.34065307 -80.65543021 250.00227951 -89.9375 250 C-90.85473846 250.0010675 -91.77197693 250.00213501 -92.7170105 250.00323486 C-106.45264954 249.98010204 -119.07573958 249.17618251 -132.125 244.5625 C-133.54803618 244.09982681 -134.97121227 243.63758371 -136.39453125 243.17578125 C-170.27906139 231.70447667 -197.98220078 206.26272496 -214.125 174.5625 C-217.77178428 166.95848527 -220.41918343 158.98959609 -222.875 150.9375 C-223.07391846 150.29361328 -223.27283691 149.64972656 -223.4777832 148.98632812 C-227.07563072 136.57676397 -227.49783973 124.13239764 -227.49560547 111.30883789 C-227.4999549 108.5288246 -227.53632562 105.75043488 -227.57421875 102.97070312 C-227.81056711 65.31398929 -213.18076665 31.59821691 -186.9375 4.8125 C-165.79038432 -16.04709221 -137.83681833 -30.15513269 -108.125 -33.4375 C-107.13371094 -33.54707031 -106.14242187 -33.65664063 -105.12109375 -33.76953125 C-66.62847018 -37.45656416 -29.00058741 -25.61793725 0 0 Z " fill="#DADDF8" transform="translate(227.125,35.4375)"/>
<path d="M0 0 C2.5 0.25 2.5 0.25 4.5 2.25 C4.5 3.24 4.5 4.23 4.5 5.25 C21.99 5.25 39.48 5.25 57.5 5.25 C57.83 3.93 58.16 2.61 58.5 1.25 C59.5 0.25 59.5 0.25 61.875 0 C64.5 0.25 64.5 0.25 66.25 1.5 C67.5 3.25 67.5 3.25 67.8125 5.18359375 C68.76176123 8.03677096 70.17613167 8.58380412 72.75 10.0625 C80.49796688 15.01873913 82.76970264 20.11094841 84.88018799 28.93652344 C85.87194574 34.23839887 85.92864626 39.43203388 85.8984375 44.8125 C85.90130768 45.96564697 85.90417786 47.11879395 85.90713501 48.30688477 C85.90916206 50.72705582 85.90372828 53.14724378 85.89111328 55.56738281 C85.87504108 59.2406123 85.89100968 62.91274163 85.91015625 66.5859375 C85.90817358 68.95312739 85.90432941 71.32031661 85.8984375 73.6875 C85.90451019 74.769104 85.91058289 75.85070801 85.9168396 76.96508789 C85.82049649 87.57575785 84.44989337 97.80693365 77.0390625 105.83203125 C72.45083386 110.25870254 67.64151139 111.87754006 61.5 113.25 C60.34766121 113.509804 60.34766121 113.509804 59.17204285 113.77485657 C56.49492626 114.25090221 54.03436738 114.38352933 51.31762695 114.39526367 C50.30920242 114.40164352 49.30077789 114.40802338 48.26179504 114.41459656 C47.18153549 114.41570938 46.10127594 114.4168222 44.98828125 114.41796875 C43.30317696 114.42296135 43.30317696 114.42296135 41.58403015 114.42805481 C39.20779834 114.43311305 36.83155945 114.43546348 34.45532227 114.43530273 C30.8431405 114.43748152 27.23126808 114.45562802 23.61914062 114.47460938 C21.30468854 114.47754516 18.99023501 114.47952872 16.67578125 114.48046875 C15.60564285 114.48765427 14.53550446 114.49483978 13.43293762 114.50224304 C2.54842987 114.46954623 -6.77524151 113.17391866 -15.5 106.25 C-26.07381969 95.37262567 -23.93803016 75.82676537 -23.83618164 61.95361328 C-23.81245598 58.49357995 -23.81565585 55.03431365 -23.82226562 51.57421875 C-23.81669125 49.34634963 -23.80958289 47.11848371 -23.80078125 44.890625 C-23.80169266 43.87059387 -23.80260406 42.85056274 -23.80354309 41.79962158 C-23.70748342 31.97281377 -22.95187366 20.96874859 -15.82421875 13.4921875 C-13.44017637 11.37871095 -11.24664464 9.60024421 -8.3515625 8.2421875 C-5.71274339 6.82813676 -5.46308318 5.00166623 -4.5 2.25 C-2.5 0.25 -2.5 0.25 0 0 Z " fill="#0414A4" transform="translate(105.5,86.75)"/>
<path d="M0 0 C29.37 0 58.74 0 89 0 C89 51 89 51 84 58 C76.0371824 63.602797 66.85763666 63.16522747 57.51171875 63.203125 C56.41334183 63.20882507 55.3149649 63.21452515 54.18330383 63.22039795 C51.86610874 63.22981523 49.54890046 63.23636887 47.23168945 63.24023438 C43.7095579 63.24993922 40.18801049 63.28099428 36.66601562 63.3125 C34.40625344 63.31903125 32.14648711 63.32428124 29.88671875 63.328125 C28.84472824 63.3404718 27.80273773 63.3528186 26.72917175 63.36553955 C18.92891627 63.34207647 11.57592489 62.51075577 5.0625 57.9375 C0.05016276 50.79871665 -0.43433592 42.65800723 -0.29296875 34.1796875 C-0.28994751 33.30513916 -0.28692627 32.43059082 -0.28381348 31.52954102 C-0.2683019 28.31123793 -0.22642036 25.09310512 -0.1875 21.875 C-0.125625 14.65625 -0.06375 7.4375 0 0 Z " fill="#D7DAF7" transform="translate(92,128)"/>
<path d="M0 0 C17.49 0 34.98 0 53 0 C53.99 1.98 53.99 1.98 55 4 C58.19902639 4.08886184 60.92677456 3.91058531 64 3 C68.18173151 7.46051361 68.34880138 9.39520552 70 16 C41.29 16 12.58 16 -17 16 C-16.06655549 10.39933297 -15.44939544 8.23782869 -12 4 C-8.81214028 2.45748723 -6.36728429 3.29109804 -3 4 C-2.34 3.67 -1.68 3.34 -1 3 C-0.67 2.01 -0.34 1.02 0 0 Z " fill="#D6DAF7" transform="translate(110,102)"/>
<path d="M0 0 C1.02075623 -0.00287018 1.02075623 -0.00287018 2.06213379 -0.00579834 C3.50122446 -0.00715963 4.94032744 -0.00346705 6.37939453 0.00488281 C8.58524087 0.01558372 10.79027281 0.00498628 12.99609375 -0.0078125 C14.39323097 -0.00649089 15.79036768 -0.00392848 17.1875 0 C18.46302734 0.00225586 19.73855469 0.00451172 21.05273438 0.00683594 C24.09375 0.265625 24.09375 0.265625 26.09375 2.265625 C25.84375 5.828125 25.84375 5.828125 25.09375 9.265625 C20.79324511 11.41587744 15.06647618 10.49259678 10.2902832 10.50585938 C8.16773399 10.51557245 6.04615032 10.54659927 3.92382812 10.578125 C2.57552658 10.58465455 1.22721812 10.58990521 -0.12109375 10.59375 C-1.34948975 10.6030957 -2.57788574 10.61244141 -3.84350586 10.62207031 C-6.90625 10.265625 -6.90625 10.265625 -8.84204102 8.90527344 C-9.90625 7.265625 -9.90625 7.265625 -9.71875 4.703125 C-7.95328181 -0.59327958 -5.05049161 0.00893215 0 0 Z " fill="#0414A4" transform="translate(135.90625,143.734375)"/>
<path d="M0 0 C1.02075623 -0.00287018 1.02075623 -0.00287018 2.06213379 -0.00579834 C3.50122446 -0.00715963 4.94032744 -0.00346705 6.37939453 0.00488281 C8.58524087 0.01558372 10.79027281 0.00498628 12.99609375 -0.0078125 C14.39323097 -0.00649089 15.79036768 -0.00392848 17.1875 0 C18.46302734 0.00225586 19.73855469 0.00451172 21.05273438 0.00683594 C24.09375 0.265625 24.09375 0.265625 26.09375 2.265625 C26.40625 5.265625 26.40625 5.265625 26.09375 8.265625 C21.34466772 11.43167986 16.22889404 10.59947715 10.64208984 10.58129883 C8.60069546 10.57813576 6.56074681 10.60161627 4.51953125 10.62695312 C2.59173828 10.62791992 2.59173828 10.62791992 0.625 10.62890625 C-0.55513672 10.63188721 -1.73527344 10.63486816 -2.95117188 10.63793945 C-5.90625 10.265625 -5.90625 10.265625 -7.79492188 8.90307617 C-9.36455488 6.59035021 -9.25636993 4.99656046 -8.90625 2.265625 C-6.03758116 -0.60304384 -4.00969387 0.00709142 0 0 Z " fill="#0717A6" transform="translate(119.90625,164.734375)"/>
<path d="M0 0 C3.0625 0.1875 3.0625 0.1875 5.0625 2.1875 C4.6875 5.8125 4.6875 5.8125 4.0625 9.1875 C-1.34889241 10.51028481 -1.34889241 10.51028481 -3.875 9.125 C-5.45095523 6.25119928 -4.74251033 4.27337291 -3.9375 1.1875 C-2.9375 0.1875 -2.9375 0.1875 0 0 Z " fill="#0F1EA8" transform="translate(156.9375,164.8125)"/>
<path d="M0 0 C2.5625 0.3125 2.5625 0.3125 4.4375 1.5 C5.5625 3.3125 5.5625 3.3125 5.375 5.875 C4.5625 8.3125 4.5625 8.3125 2.5625 10.3125 C-3.00568182 9.74431818 -3.00568182 9.74431818 -4.4375 8.3125 C-4.625 5.375 -4.625 5.375 -4.4375 2.3125 C-2.4375 0.3125 -2.4375 0.3125 0 0 Z " fill="#0D1CA8" transform="translate(115.4375,143.6875)"/>
</svg>
