<?xml version="1.0" encoding="UTF-8"?>
<svg version="1.1" xmlns="http://www.w3.org/2000/svg" width="273" height="285">
<path d="M0 0 C1.63252421 1.51275369 3.25756669 3.03362181 4.875 4.5625 C5.68582031 5.30886719 6.49664062 6.05523437 7.33203125 6.82421875 C29.84266489 28.27135788 45.17577422 60.72807327 46.05200195 92.00878906 C46.07858129 93.61514435 46.09871435 95.22161587 46.11328125 96.828125 C46.121353 97.70160583 46.12942474 98.57508667 46.13774109 99.47503662 C46.15150474 101.32057766 46.16226102 103.16614332 46.17016602 105.01171875 C46.18158953 106.85750045 46.20188491 108.70325171 46.23168945 110.54882812 C46.83997317 148.36436586 33.27622322 182.65265466 7.3269043 210.15576172 C-11.15933594 229.13679171 -34.5695196 241.19384074 -60.125 247.5625 C-60.796521 247.74868896 -61.46804199 247.93487793 -62.15991211 248.12670898 C-71.23480247 250.34065307 -80.65543021 250.00227951 -89.9375 250 C-90.85473846 250.0010675 -91.77197693 250.00213501 -92.7170105 250.00323486 C-106.45264954 249.98010204 -119.07573958 249.17618251 -132.125 244.5625 C-133.54803618 244.09982681 -134.97121227 243.63758371 -136.39453125 243.17578125 C-170.27906139 231.70447667 -197.98220078 206.26272496 -214.125 174.5625 C-217.77178428 166.95848527 -220.41918343 158.98959609 -222.875 150.9375 C-223.07391846 150.29361328 -223.27283691 149.64972656 -223.4777832 148.98632812 C-227.07563072 136.57676397 -227.49783973 124.13239764 -227.49560547 111.30883789 C-227.4999549 108.5288246 -227.53632562 105.75043488 -227.57421875 102.97070312 C-227.75398175 74.17372271 -219.27633879 45.87334736 -202.125 22.5625 C-201.5578125 21.77230469 -200.990625 20.98210938 -200.40625 20.16796875 C-178.74727623 -8.4731742 -146.57298252 -28.16230623 -110.84765625 -33.13671875 C-109.94917969 -33.23597656 -109.05070312 -33.33523437 -108.125 -33.4375 C-107.13371094 -33.54707031 -106.14242187 -33.65664063 -105.12109375 -33.76953125 C-66.62847018 -37.45656416 -29.00058741 -25.61793725 0 0 Z " fill="#DADDF8" transform="translate(227.125,35.4375)"/>
<path d="M0 0 C5.73712127 6.54646516 5.73712127 6.54646516 6.22265625 11.078125 C5.72242981 17.8616836 3.03490542 21.55468388 -2 26 C-7.9493535 30.57876865 -13.55850961 34.20492411 -21.24243164 34.32226562 C-22.77541649 34.35108826 -22.77541649 34.35108826 -24.33937073 34.38049316 C-25.98315956 34.3932428 -25.98315956 34.3932428 -27.66015625 34.40625 C-28.80101181 34.41765015 -29.94186737 34.42905029 -31.11729431 34.4407959 C-33.53217882 34.45967305 -35.94711458 34.47275481 -38.36206055 34.48046875 C-42.02551423 34.49980479 -45.68668578 34.56183338 -49.34960938 34.625 C-51.70311176 34.63806928 -54.05663011 34.6485666 -56.41015625 34.65625 C-57.49184586 34.6809436 -58.57353546 34.70563721 -59.68800354 34.7310791 C-69.99840685 34.67180533 -78.16443048 30.97297008 -85.625 23.875 C-88.50090685 20.85347761 -90.88290386 18.14676248 -91.1171875 13.8515625 C-90.29065538 6.25279949 -87.5275704 2.12575421 -81.75 -2.875 C-56.000931 -22.65271917 -24.73782046 -21.11665924 0 0 Z " fill="#0313A4" transform="translate(179,166)"/>
<path d="M0 0 C7.38734557 4.60238166 13.20955777 10.6286733 16 19 C16.86237429 29.99880658 15.70181693 37.56719265 8.875 46.25 C2.68339786 52.78122589 -3.52123856 55.28105551 -12.5 55.625 C-21.98045589 55.25265581 -27.9535353 52.49659302 -34.4375 45.625 C-40.59964391 38.00634935 -41.64395623 32.52636463 -41.40234375 22.7265625 C-40.44087517 13.82130984 -36.07453143 8.17318534 -29.2421875 2.62890625 C-21.01784448 -3.34592134 -9.35790382 -4.13907285 0 0 Z " fill="#0414A4" transform="translate(149,86)"/>
<path d="M0 0 C8.22476926 5.27950636 8.22476926 5.27950636 11.25805664 8.64624023 C9.55094378 14.06015683 6.93413993 15.73921522 2.11621094 18.4329834 C-2.60806303 20.43838867 -7.00992165 20.5054587 -12.08569336 20.44311523 C-13.13543335 20.44885559 -14.18517334 20.45459595 -15.26672363 20.46051025 C-17.47186458 20.46456789 -19.67707947 20.45367419 -21.88208008 20.4284668 C-25.23415936 20.3963149 -28.58141812 20.42823372 -31.93334961 20.46655273 C-34.08830804 20.46258744 -36.2432635 20.45489917 -38.39819336 20.44311523 C-39.38702515 20.45526062 -40.37585693 20.46740601 -41.39465332 20.47991943 C-48.56821513 20.3368018 -54.30657 18.50289498 -59.74194336 13.64624023 C-61.01794434 10.94232178 -61.01794434 10.94232178 -61.74194336 8.64624023 C-57.43481246 4.54421081 -52.8865266 1.36872671 -47.74194336 -1.60375977 C-47.16105957 -1.9447168 -46.58017578 -2.28567383 -45.98168945 -2.63696289 C-31.24220461 -10.96024201 -13.99732024 -8.64827457 0 0 Z " fill="#D7DAF7" transform="translate(161.741943359375,168.353759765625)"/>
<path d="M0 0 C5.67458978 1.92721917 9.32050871 5.64101742 12 11 C12.55713132 16.95701945 12.52180186 21.95208399 9 27 C4.79658918 31.22638028 1.16054581 33.13817147 -4.8125 33.3125 C-9.6661481 33.25598008 -12.28169946 32.27564572 -16 29 C-20.53672319 23.97282025 -21.35816104 20.10864202 -21.28125 13.50390625 C-20.7247527 8.54953445 -17.97706409 5.86074694 -14.375 2.6875 C-9.68678983 -0.6435967 -5.63115856 -0.46854016 0 0 Z " fill="#D8DBF7" transform="translate(141,96)"/>
<path d="M0 0 C11.02369078 0.15646529 19.35877257 7.00234185 27.0625 14.375 C30.2851079 18.15460185 31.87672228 22.19879078 31.5625 27.265625 C29.9992424 33.86061801 25.67444814 38.33671304 20.125 41.9375 C15.97054353 44.18991616 12.84326663 45.25309999 8.0625 44.375 C6.125 43.3125 6.125 43.3125 5.0625 41.375 C4.875 37.6875 4.875 37.6875 5.0625 34.375 C5.66578125 34.13265625 6.2690625 33.8903125 6.890625 33.640625 C11.36156004 31.76571676 14.91083717 30.21180693 18.0625 26.375 C16.06238036 20.04853462 11.67092059 17.51072333 6.0625 14.375 C3.44918937 13.42671007 0.90206047 12.68726078 -1.80859375 12.078125 C-4.28474189 11.2603146 -5.4055855 10.48075869 -6.9375 8.375 C-6.37594848 0.23250303 -6.37594848 0.23250303 0 0 Z " fill="#0414A4" transform="translate(182.9375,142.625)"/>
<path d="M0 0 C2.35409896 1.82807242 2.92651555 2.51010369 3.375 5.5 C2.92521324 8.49857843 2.32219143 9.12676558 0 11 C-2.09375 11.66796875 -2.09375 11.66796875 -4.5 12.1875 C-10.88616893 13.95568816 -16.19817799 17.4596202 -21 22 C-22.00463797 24.02877773 -22.00463797 24.02877773 -22 26 C-19.13293957 29.94220809 -15.40951179 31.20353223 -11 33 C-9 35 -9 35 -8.6875 37.9375 C-9 41 -9 41 -10.0625 42.875 C-13.23581448 44.7175697 -15.38474479 44.47413183 -19 44 C-25.68512545 41.16309018 -31.74422235 35.5115553 -35 29 C-35.58633393 23.33210532 -35.08413652 19.78656434 -31.80859375 15.08203125 C-23.896315 5.97351165 -12.71290479 -2.54717046 0 0 Z " fill="#0413A4" transform="translate(94,143)"/>
<path d="M0 0 C1.16015625 -0.03867188 1.16015625 -0.03867188 2.34375 -0.078125 C5.04197481 0.33247443 5.88816292 1.08060921 7.5 3.25 C7.88630872 6.34046979 8.0339636 8.33912093 6.4375 11.0625 C4.5 12.25 4.5 12.25 1.0625 12.6875 C-2.94222858 13.31982557 -4.04122313 14.12924474 -6.5 17.25 C-8.24624739 20.74249478 -7.35963542 24.53855819 -6.5 28.25 C-3.57173835 31.88104444 1.142694 32.19581306 5.5 33.25 C7.5 35.25 7.5 35.25 7.8125 38.1875 C7.5 41.25 7.5 41.25 6.2421875 42.9140625 C3.51541979 45.004992 1.24433398 44.72234908 -2.08984375 44.59765625 C-7.64426692 43.79645096 -11.39181117 41.35818883 -15.3125 37.4375 C-20.03662026 30.55378191 -21.70929657 24.5174025 -20.5 16.25 C-18.15893513 9.32434977 -13.73381182 4.90160525 -7.5 1.25 C-4.73952457 0.32984152 -2.86637731 0.05732755 0 0 Z " fill="#0515A5" transform="translate(92.5,96.75)"/>
<path d="M0 0 C7.54537137 2.26648037 12.52196147 7.79810859 16.4375 14.4375 C17.89361721 21.07092283 17.41674396 26.73012169 14.40234375 32.85546875 C11.13611076 37.85034872 5.93781192 42.69657787 0 44 C-3.02298482 44.23782223 -5.98902019 44.40225271 -9 44 C-11 42 -11 42 -11.375 38.5625 C-11 35 -11 35 -9.5625 33.25 C-7.16130282 32.0786843 -4.93063923 31.37399572 -2.375 30.625 C1.19542336 29.5279458 1.19542336 29.5279458 3.625 26.75 C4.11649132 23.14573033 3.96061696 20.52226217 3 17 C-0.49070464 13.20129201 -4.11070668 12.29151144 -9 11 C-11 9 -11 9 -11.3125 5.5 C-11.209375 4.345 -11.10625 3.19 -11 2 C-7.24828582 -0.50114278 -4.33978838 -0.60663709 0 0 Z " fill="#0515A5" transform="translate(181,97)"/>
<path d="M0 0 C0.66 0.66 1.32 1.32 2 2 C-2.16138263 2.08159574 -5.9472484 1.98248524 -10 1 C-10 0.67 -10 0.34 -10 0 C-3.375 -1.125 -3.375 -1.125 0 0 Z " fill="#A1A8E2" transform="translate(184,141)"/>
</svg>
