<?xml version="1.0" encoding="UTF-8"?>
<svg version="1.1" xmlns="http://www.w3.org/2000/svg" width="273" height="284">
<path d="M0 0 C0.66547852 0.18191895 1.33095703 0.36383789 2.01660156 0.55126953 C36.68209813 10.21511872 65.96226354 34.93005923 83.75 65.8125 C93.98227133 84.29558386 100.04147118 104.95612706 100.23828125 126.1328125 C100.24812042 126.99876541 100.25795959 127.86471832 100.26809692 128.75691223 C100.59654044 165.12806335 100.59654044 165.12806335 96 180 C95.76394043 180.78165527 95.52788086 181.56331055 95.28466797 182.36865234 C89.71916819 200.18471063 81.15847227 216.81511569 69 231 C68.57106445 231.5057959 68.14212891 232.0115918 67.70019531 232.53271484 C45.89941352 258.04237686 14.69369583 275.86555669 -18.8984375 279.75390625 C-35.35438096 280.92933078 -51.90556065 280.83621936 -68 277 C-69.0216626 276.76651855 -69.0216626 276.76651855 -70.06396484 276.52832031 C-87.78051978 272.34646212 -104.64114396 264.14830249 -119 253 C-120.42505859 251.90558594 -120.42505859 251.90558594 -121.87890625 250.7890625 C-150.1478645 228.37834455 -168.71435385 195.93102261 -173 160 C-173.16626857 156.79838845 -173.21086157 153.6000543 -173.23828125 150.39453125 C-173.246353 149.47524338 -173.25442474 148.55595551 -173.26274109 147.60881042 C-173.27652606 145.66313527 -173.287273 143.7174365 -173.29516602 141.77172852 C-173.30658611 139.82210983 -173.3268757 137.87251987 -173.35668945 135.9230957 C-173.74823392 110.24084074 -168.24193614 87.61120402 -156 65 C-155.50628906 64.08476563 -155.01257813 63.16953125 -154.50390625 62.2265625 C-137.4001524 32.28288012 -107.9408777 9.58381602 -74.76123047 0.37890625 C-50.82198536 -5.85150753 -23.95338443 -6.87205772 0 0 Z " fill="#DADDF8" transform="translate(173,4)"/>
<path d="M0 0 C4.59195873 3.37621249 8.79872686 7.28495372 11.375 12.4375 C11.92203337 16.92138006 11.84532752 20.457651 9.875 24.5625 C3.17771344 32.26437955 -4.48670981 38.43184914 -14.89703369 39.89846802 C-18.51646455 40.07781498 -22.1029224 40.10486239 -25.7265625 40.06640625 C-27.04361176 40.06881821 -28.36066101 40.07123016 -29.71762085 40.07371521 C-32.48622079 40.07655169 -35.25400207 40.06208325 -38.02246094 40.03442383 C-41.5472734 40.00027558 -45.07063125 40.00640109 -48.5955143 40.0250864 C-51.9935046 40.03827031 -55.39108231 40.01992182 -58.7890625 40.00390625 C-60.04240387 40.00886612 -61.29574524 40.01382599 -62.58706665 40.01893616 C-73.61370312 39.87158637 -81.38289904 36.72789867 -89.625 29.4375 C-94.21637872 24.62965429 -96.0108386 21.36113328 -95.89453125 14.7421875 C-95.21286027 8.91340668 -90.56393003 4.96272111 -86.28125 1.3671875 C-58.23872745 -19.00488035 -28.53962712 -19.0407452 0 0 Z " fill="#0514A5" transform="translate(178.625,161.5625)"/>
<path d="M0 0 C6.70523137 4.87223161 12.21258294 10.36549872 14.21484375 18.609375 C15.57505492 28.57232522 13.97016435 36.33302722 8.21484375 44.609375 C2.87578245 50.91813761 -4.11159801 54.8424424 -12.328125 55.953125 C-20.72057174 56.26540209 -28.21062959 53.86899633 -34.78515625 48.609375 C-41.64801939 41.71287038 -44.78561545 34.78096551 -45.22265625 25.046875 C-45.12339687 16.98701358 -42.28929675 10.18969247 -36.62890625 4.40625 C-34.42714208 2.61166139 -32.21107711 1.08302497 -29.78515625 -0.390625 C-28.75390625 -1.03 -27.72265625 -1.669375 -26.66015625 -2.328125 C-18.19468884 -5.46567586 -7.68962478 -4.55491917 0 0 Z " fill="#0414A4" transform="translate(151.78515625,86.390625)"/>
<path d="M0 0 C2.60531611 2.02461312 4.34379165 3.67701632 5.4453125 6.82421875 C3.6863741 11.84975703 -0.7586424 14.40059811 -5.25219727 16.88427734 C-10.75801076 19.18722281 -16.61131134 18.79198651 -22.484375 18.79296875 C-23.74049591 18.80058228 -24.99661682 18.8081958 -26.290802 18.81604004 C-28.94207569 18.82682301 -31.5924552 18.83107733 -34.24365234 18.82519531 C-37.61847759 18.81930627 -40.99186066 18.84987781 -44.36640739 18.89031219 C-47.61403429 18.92258568 -50.86161272 18.91807275 -54.109375 18.91796875 C-55.30964325 18.93436401 -56.5099115 18.95075928 -57.74655151 18.96765137 C-66.73260571 18.89416793 -72.81554951 16.71081797 -79.5546875 10.76171875 C-81.4296875 8.32421875 -81.4296875 8.32421875 -81.20703125 6.33984375 C-78.0726908 -1.78739078 -64.84420077 -7.07547381 -57.4296875 -10.67578125 C-37.45131956 -19.06827928 -16.77958051 -11.57305473 0 0 Z " fill="#D9DCF8" transform="translate(174.4296875,171.67578125)"/>
<path d="M0 0 C3.92375459 3.37625395 8.37136189 7.23404034 8.92578125 12.6328125 C9.09728034 19.11367299 8.57645463 23.98878541 4.6875 29.3125 C-0.7075814 34.43782733 -5.15656738 35.84986781 -12.4921875 35.68359375 C-17.8749181 34.97533972 -21.24787075 32.49294991 -24.9140625 28.62109375 C-28.56453904 23.73679692 -29.00959925 19.07956498 -28.73046875 13.08203125 C-27.94072047 7.84902626 -25.16081302 4.95701452 -21.375 1.5625 C-14.46785278 -3.51213877 -7.72939659 -3.93761713 0 0 Z " fill="#D8DBF7" transform="translate(146.3125,95.6875)"/>
</svg>
